<svg width="136" height="30" viewBox="0 0 136 30" fill="none" xmlns="http://www.w3.org/2000/svg">
    <path
        fill-rule="evenodd"
        clip-rule="evenodd"
        d="M20 14C20 11.7909 21.7909 10 24 10C26.2091 10 28 11.7909 28 14C28 16.2091 26.2091 18 24 18C21.7909 18 20 16.2091 20 14Z"
        fill="#026FC2"/>
    <path fill-rule="evenodd" clip-rule="evenodd" d="M0 14C0 11.7909 1.79086 10 4 10C6.20914 10 8 11.7909 8 14C8 16.2091 6.20914 18 4 18C1.79086 18 0 16.2091 0 14Z" fill="#026FC2"/>
    <path fill-rule="evenodd" clip-rule="evenodd" d="M10 24C10 21.7909 11.7909 20 14 20C16.2091 20 18 21.7909 18 24C18 26.2091 16.2091 28 14 28C11.7909 28 10 26.2091 10 24Z" fill="#21567E"/>
    <path fill-rule="evenodd" clip-rule="evenodd" d="M10 4C10 1.79086 11.7909 0 14 0C16.2091 0 18 1.79086 18 4C18 6.20914 16.2091 8 14 8C11.7909 8 10 6.20914 10 4Z" fill="#21567E"/>
    <path d="M72.0586 18.4688L74.25 24.6562L76.4297 18.4688H78.7383V27H76.9746V24.668L77.1504 20.6426L74.8477 27H73.6406L71.3438 20.6484L71.5195 24.668V27H69.7617V18.4688H72.0586ZM83.3359 27C83.2578 26.8477 83.2012 26.6582 83.166 26.4316C82.7559 26.8887 82.2227 27.1172 81.5664 27.1172C80.9453 27.1172 80.4297 26.9375 80.0195 26.5781C79.6133 26.2188 79.4102 25.7656 79.4102 25.2188C79.4102 24.5469 79.6582 24.0312 80.1543 23.6719C80.6543 23.3125 81.375 23.1309 82.3164 23.127H83.0957V22.7637C83.0957 22.4707 83.0195 22.2363 82.8672 22.0605C82.7188 21.8848 82.4824 21.7969 82.1582 21.7969C81.873 21.7969 81.6484 21.8652 81.4844 22.002C81.3242 22.1387 81.2441 22.3262 81.2441 22.5645H79.5508C79.5508 22.1973 79.6641 21.8574 79.8906 21.5449C80.1172 21.2324 80.4375 20.9883 80.8516 20.8125C81.2656 20.6328 81.7305 20.543 82.2461 20.543C83.0273 20.543 83.6465 20.7402 84.1035 21.1348C84.5645 21.5254 84.7949 22.0762 84.7949 22.7871V25.5352C84.7988 26.1367 84.8828 26.5918 85.0469 26.9004V27H83.3359ZM81.9355 25.8223C82.1855 25.8223 82.416 25.7676 82.627 25.6582C82.8379 25.5449 82.9941 25.3945 83.0957 25.207V24.1172H82.4629C81.6152 24.1172 81.1641 24.4102 81.1094 24.9961L81.1035 25.0957C81.1035 25.3066 81.1777 25.4805 81.3262 25.6172C81.4746 25.7539 81.6777 25.8223 81.9355 25.8223ZM87.1543 20.6602L87.207 21.3926C87.6602 20.8262 88.2676 20.543 89.0293 20.543C89.7012 20.543 90.2012 20.7402 90.5293 21.1348C90.8574 21.5293 91.0254 22.1191 91.0332 22.9043V27H89.3398V22.9453C89.3398 22.5859 89.2617 22.3262 89.1055 22.166C88.9492 22.002 88.6895 21.9199 88.3262 21.9199C87.8496 21.9199 87.4922 22.123 87.2539 22.5293V27H85.5605V20.6602H87.1543ZM95.4961 27C95.418 26.8477 95.3613 26.6582 95.3262 26.4316C94.916 26.8887 94.3828 27.1172 93.7266 27.1172C93.1055 27.1172 92.5898 26.9375 92.1797 26.5781C91.7734 26.2188 91.5703 25.7656 91.5703 25.2188C91.5703 24.5469 91.8184 24.0312 92.3145 23.6719C92.8145 23.3125 93.5352 23.1309 94.4766 23.127H95.2559V22.7637C95.2559 22.4707 95.1797 22.2363 95.0273 22.0605C94.8789 21.8848 94.6426 21.7969 94.3184 21.7969C94.0332 21.7969 93.8086 21.8652 93.6445 22.002C93.4844 22.1387 93.4043 22.3262 93.4043 22.5645H91.7109C91.7109 22.1973 91.8242 21.8574 92.0508 21.5449C92.2773 21.2324 92.5977 20.9883 93.0117 20.8125C93.4258 20.6328 93.8906 20.543 94.4062 20.543C95.1875 20.543 95.8066 20.7402 96.2637 21.1348C96.7246 21.5254 96.9551 22.0762 96.9551 22.7871V25.5352C96.959 26.1367 97.043 26.5918 97.207 26.9004V27H95.4961ZM94.0957 25.8223C94.3457 25.8223 94.5762 25.7676 94.7871 25.6582C94.998 25.5449 95.1543 25.3945 95.2559 25.207V24.1172H94.623C93.7754 24.1172 93.3242 24.4102 93.2695 24.9961L93.2637 25.0957C93.2637 25.3066 93.3379 25.4805 93.4863 25.6172C93.6348 25.7539 93.8379 25.8223 94.0957 25.8223ZM97.5098 23.7832C97.5098 22.8105 97.7402 22.0273 98.2012 21.4336C98.666 20.8398 99.291 20.543 100.076 20.543C100.771 20.543 101.312 20.7812 101.699 21.2578L101.77 20.6602H103.305V26.7891C103.305 27.3438 103.178 27.8262 102.924 28.2363C102.674 28.6465 102.32 28.959 101.863 29.1738C101.406 29.3887 100.871 29.4961 100.258 29.4961C99.793 29.4961 99.3398 29.4023 98.8984 29.2148C98.457 29.0312 98.123 28.793 97.8965 28.5L98.6465 27.4688C99.0684 27.9414 99.5801 28.1777 100.182 28.1777C100.631 28.1777 100.98 28.0566 101.23 27.8145C101.48 27.5762 101.605 27.2363 101.605 26.7949V26.4551C101.215 26.8965 100.701 27.1172 100.064 27.1172C99.3027 27.1172 98.6855 26.8203 98.2129 26.2266C97.7441 25.6289 97.5098 24.8379 97.5098 23.8535V23.7832ZM99.2031 23.9062C99.2031 24.4805 99.3184 24.9316 99.5488 25.2598C99.7793 25.584 100.096 25.7461 100.498 25.7461C101.014 25.7461 101.383 25.5527 101.605 25.166V22.5C101.379 22.1133 101.014 21.9199 100.51 21.9199C100.104 21.9199 99.7832 22.0859 99.5488 22.418C99.3184 22.75 99.2031 23.2461 99.2031 23.9062ZM107.029 27.1172C106.1 27.1172 105.342 26.832 104.756 26.2617C104.174 25.6914 103.883 24.9316 103.883 23.9824V23.8184C103.883 23.1816 104.006 22.6133 104.252 22.1133C104.498 21.6094 104.846 21.2227 105.295 20.9531C105.748 20.6797 106.264 20.543 106.842 20.543C107.709 20.543 108.391 20.8164 108.887 21.3633C109.387 21.9102 109.637 22.6855 109.637 23.6895V24.3809H105.6C105.654 24.7949 105.818 25.127 106.092 25.377C106.369 25.627 106.719 25.752 107.141 25.752C107.793 25.752 108.303 25.5156 108.67 25.043L109.502 25.9746C109.248 26.334 108.904 26.6152 108.471 26.8184C108.037 27.0176 107.557 27.1172 107.029 27.1172ZM106.836 21.9141C106.5 21.9141 106.227 22.0273 106.016 22.2539C105.809 22.4805 105.676 22.8047 105.617 23.2266H107.973V23.0918C107.965 22.7168 107.863 22.4277 107.668 22.2246C107.473 22.0176 107.195 21.9141 106.836 21.9141ZM111.691 20.6602L111.744 21.3691C112.193 20.8184 112.801 20.543 113.566 20.543C114.383 20.543 114.943 20.8652 115.248 21.5098C115.693 20.8652 116.328 20.543 117.152 20.543C117.84 20.543 118.352 20.7441 118.688 21.1465C119.023 21.5449 119.191 22.1465 119.191 22.9512V27H117.492V22.957C117.492 22.5977 117.422 22.3359 117.281 22.1719C117.141 22.0039 116.893 21.9199 116.537 21.9199C116.029 21.9199 115.678 22.1621 115.482 22.6465L115.488 27H113.795V22.9629C113.795 22.5957 113.723 22.3301 113.578 22.166C113.434 22.002 113.188 21.9199 112.84 21.9199C112.359 21.9199 112.012 22.1191 111.797 22.5176V27H110.104V20.6602H111.691ZM122.916 27.1172C121.986 27.1172 121.229 26.832 120.643 26.2617C120.061 25.6914 119.77 24.9316 119.77 23.9824V23.8184C119.77 23.1816 119.893 22.6133 120.139 22.1133C120.385 21.6094 120.732 21.2227 121.182 20.9531C121.635 20.6797 122.15 20.543 122.729 20.543C123.596 20.543 124.277 20.8164 124.773 21.3633C125.273 21.9102 125.523 22.6855 125.523 23.6895V24.3809H121.486C121.541 24.7949 121.705 25.127 121.979 25.377C122.256 25.627 122.605 25.752 123.027 25.752C123.68 25.752 124.189 25.5156 124.557 25.043L125.389 25.9746C125.135 26.334 124.791 26.6152 124.357 26.8184C123.924 27.0176 123.443 27.1172 122.916 27.1172ZM122.723 21.9141C122.387 21.9141 122.113 22.0273 121.902 22.2539C121.695 22.4805 121.562 22.8047 121.504 23.2266H123.859V23.0918C123.852 22.7168 123.75 22.4277 123.555 22.2246C123.359 22.0176 123.082 21.9141 122.723 21.9141ZM127.549 20.6602L127.602 21.3926C128.055 20.8262 128.662 20.543 129.424 20.543C130.096 20.543 130.596 20.7402 130.924 21.1348C131.252 21.5293 131.42 22.1191 131.428 22.9043V27H129.734V22.9453C129.734 22.5859 129.656 22.3262 129.5 22.166C129.344 22.002 129.084 21.9199 128.721 21.9199C128.244 21.9199 127.887 22.123 127.648 22.5293V27H125.955V20.6602H127.549ZM134.244 19.1016V20.6602H135.328V21.9023H134.244V25.0664C134.244 25.3008 134.289 25.4688 134.379 25.5703C134.469 25.6719 134.641 25.7227 134.895 25.7227C135.082 25.7227 135.248 25.709 135.393 25.6816V26.9648C135.061 27.0664 134.719 27.1172 134.367 27.1172C133.18 27.1172 132.574 26.5176 132.551 25.3184V21.9023H131.625V20.6602H132.551V19.1016H134.244Z" fill="#979797"/>
    <path d="M47.7783 13.6426C47.7783 13.1445 47.6025 12.7637 47.251 12.5C46.8994 12.2305 46.2666 11.9492 45.3525 11.6562C44.4385 11.3574 43.7148 11.0645 43.1816 10.7773C41.7285 9.99219 41.002 8.93457 41.002 7.60449C41.002 6.91309 41.1953 6.29785 41.582 5.75879C41.9746 5.21387 42.5342 4.78906 43.2607 4.48438C43.9932 4.17969 44.8135 4.02734 45.7217 4.02734C46.6357 4.02734 47.4502 4.19434 48.165 4.52832C48.8799 4.85645 49.4336 5.32227 49.8262 5.92578C50.2246 6.5293 50.4238 7.21484 50.4238 7.98242H47.7871C47.7871 7.39648 47.6025 6.94238 47.2334 6.62012C46.8643 6.29199 46.3457 6.12793 45.6777 6.12793C45.0332 6.12793 44.5322 6.26563 44.1748 6.54102C43.8174 6.81055 43.6387 7.16797 43.6387 7.61328C43.6387 8.0293 43.8467 8.37793 44.2627 8.65918C44.6846 8.94043 45.3027 9.2041 46.1172 9.4502C47.6172 9.90137 48.71 10.4609 49.3955 11.1289C50.0811 11.7969 50.4238 12.6289 50.4238 13.625C50.4238 14.7324 50.0049 15.6025 49.167 16.2354C48.3291 16.8623 47.2012 17.1758 45.7832 17.1758C44.7988 17.1758 43.9023 16.9971 43.0938 16.6396C42.2852 16.2764 41.667 15.7812 41.2393 15.1543C40.8174 14.5273 40.6064 13.8008 40.6064 12.9746H43.252C43.252 14.3867 44.0957 15.0928 45.7832 15.0928C46.4102 15.0928 46.8994 14.9668 47.251 14.7148C47.6025 14.457 47.7783 14.0996 47.7783 13.6426ZM55.9268 17.1758C54.5322 17.1758 53.3955 16.748 52.5166 15.8926C51.6436 15.0371 51.207 13.8975 51.207 12.4736V12.2275C51.207 11.2725 51.3916 10.4199 51.7607 9.66992C52.1299 8.91406 52.6514 8.33398 53.3252 7.92969C54.0049 7.51953 54.7783 7.31445 55.6455 7.31445C56.9463 7.31445 57.9688 7.72461 58.7129 8.54492C59.4629 9.36523 59.8379 10.5283 59.8379 12.0342V13.0713H53.7822C53.8643 13.6924 54.1104 14.1904 54.5205 14.5654C54.9365 14.9404 55.4609 15.1279 56.0938 15.1279C57.0723 15.1279 57.8369 14.7734 58.3877 14.0645L59.6357 15.4619C59.2549 16.001 58.7393 16.4229 58.0889 16.7275C57.4385 17.0264 56.7178 17.1758 55.9268 17.1758ZM55.6367 9.37109C55.1328 9.37109 54.7227 9.54102 54.4062 9.88086C54.0957 10.2207 53.8965 10.707 53.8086 11.3398H57.3418V11.1377C57.3301 10.5752 57.1777 10.1416 56.8848 9.83691C56.5918 9.52637 56.1758 9.37109 55.6367 9.37109ZM63.4688 17H60.9199V3.5H63.4688V17ZM67.75 17H65.2012V3.5H67.75V17ZM69.5176 17V4.20312H74C75.5527 4.20312 76.7305 4.50195 77.5332 5.09961C78.3359 5.69141 78.7373 6.56152 78.7373 7.70996C78.7373 8.33691 78.5762 8.89062 78.2539 9.37109C77.9316 9.8457 77.4834 10.1943 76.9092 10.417C77.5654 10.5811 78.0811 10.9121 78.4561 11.4102C78.8369 11.9082 79.0273 12.5176 79.0273 13.2383C79.0273 14.4688 78.6348 15.4004 77.8496 16.0332C77.0645 16.666 75.9453 16.9883 74.4922 17H69.5176ZM72.1543 11.4277V14.8818H74.4131C75.0342 14.8818 75.5176 14.7354 75.8633 14.4424C76.2148 14.1436 76.3906 13.7334 76.3906 13.2119C76.3906 12.04 75.7842 11.4453 74.5713 11.4277H72.1543ZM72.1543 9.56445H74.1055C75.4355 9.54102 76.1006 9.01074 76.1006 7.97363C76.1006 7.39355 75.9307 6.97754 75.5908 6.72559C75.2568 6.46777 74.7266 6.33887 74 6.33887H72.1543V9.56445ZM85.6904 9.87207C85.3447 9.8252 85.04 9.80176 84.7764 9.80176C83.8154 9.80176 83.1855 10.127 82.8867 10.7773V17H80.3467V7.49023H82.7461L82.8164 8.62402C83.3262 7.75098 84.0322 7.31445 84.9346 7.31445C85.2158 7.31445 85.4795 7.35254 85.7256 7.42871L85.6904 9.87207ZM85.709 12.1572C85.709 11.2139 85.8906 10.373 86.2539 9.63477C86.6172 8.89648 87.1387 8.3252 87.8184 7.9209C88.5039 7.5166 89.2979 7.31445 90.2002 7.31445C91.4834 7.31445 92.5293 7.70703 93.3379 8.49219C94.1523 9.27734 94.6064 10.3438 94.7002 11.6914L94.7178 12.3418C94.7178 13.8008 94.3105 14.9727 93.4961 15.8574C92.6816 16.7363 91.5889 17.1758 90.2178 17.1758C88.8467 17.1758 87.751 16.7363 86.9307 15.8574C86.1162 14.9785 85.709 13.7832 85.709 12.2715V12.1572ZM88.249 12.3418C88.249 13.2441 88.4189 13.9355 88.7588 14.416C89.0986 14.8906 89.585 15.1279 90.2178 15.1279C90.833 15.1279 91.3135 14.8936 91.6592 14.4248C92.0049 13.9502 92.1777 13.1943 92.1777 12.1572C92.1777 11.2725 92.0049 10.5869 91.6592 10.1006C91.3135 9.61426 90.8271 9.37109 90.2002 9.37109C89.5791 9.37109 89.0986 9.61426 88.7588 10.1006C88.4189 10.5811 88.249 11.3281 88.249 12.3418ZM99.2363 13.1855L98.3223 14.0996V17H95.7822V3.5H98.3223V10.9795L98.8145 10.3467L101.249 7.49023H104.299L100.862 11.4541L104.598 17H101.68L99.2363 13.1855ZM109.099 17.1758C107.704 17.1758 106.567 16.748 105.688 15.8926C104.815 15.0371 104.379 13.8975 104.379 12.4736V12.2275C104.379 11.2725 104.563 10.4199 104.933 9.66992C105.302 8.91406 105.823 8.33398 106.497 7.92969C107.177 7.51953 107.95 7.31445 108.817 7.31445C110.118 7.31445 111.141 7.72461 111.885 8.54492C112.635 9.36523 113.01 10.5283 113.01 12.0342V13.0713H106.954C107.036 13.6924 107.282 14.1904 107.692 14.5654C108.108 14.9404 108.633 15.1279 109.266 15.1279C110.244 15.1279 111.009 14.7734 111.56 14.0645L112.808 15.4619C112.427 16.001 111.911 16.4229 111.261 16.7275C110.61 17.0264 109.89 17.1758 109.099 17.1758ZM108.809 9.37109C108.305 9.37109 107.895 9.54102 107.578 9.88086C107.268 10.2207 107.068 10.707 106.98 11.3398H110.514V11.1377C110.502 10.5752 110.35 10.1416 110.057 9.83691C109.764 9.52637 109.348 9.37109 108.809 9.37109Z" fill="#026FC2"/>
</svg>
